<svg width="167" height="40" viewBox="0 0 167 40" fill="none" xmlns="http://www.w3.org/2000/svg">
<g clip-path="url(#clip0_284_10072)">
<path d="M50.6074 28.608H62.2679V25.0958H54.7518V11.8665H50.6074V28.608Z" fill="url(#paint0_linear_284_10072)"/>
<path d="M69.1754 26.2666C67.513 26.2666 66.6466 24.8149 66.6466 22.6373C66.6466 20.4597 67.513 18.9846 69.1754 18.9846C70.8378 18.9846 71.7276 20.4597 71.7276 22.6373C71.7276 24.8149 70.8378 26.2666 69.1754 26.2666ZM69.1988 28.9827C73.0622 28.9827 75.591 26.2432 75.591 22.6373C75.591 19.0314 73.0622 16.2919 69.1988 16.2919C65.3588 16.2919 62.7832 19.0314 62.7832 22.6373C62.7832 26.2432 65.3588 28.9827 69.1988 28.9827Z" fill="url(#paint1_linear_284_10072)"/>
<path d="M82.2792 32.7524C84.0587 32.7524 85.6275 32.3543 86.6811 31.4178C87.6411 30.5514 88.2733 29.2402 88.2733 27.4373V16.6197H84.6207V17.9075H84.5738C83.8714 16.9007 82.7943 16.2685 81.2021 16.2685C78.2285 16.2685 76.168 18.7504 76.168 22.2626C76.168 25.9387 78.6733 27.9524 81.366 27.9524C82.8177 27.9524 83.7309 27.367 84.4333 26.5709H84.527V27.7651C84.527 29.2168 83.848 30.0597 82.2324 30.0597C80.968 30.0597 80.3358 29.5212 80.125 28.889H76.4255C76.8002 31.3943 78.9777 32.7524 82.2792 32.7524ZM82.2558 25.1192C80.8275 25.1192 79.8909 23.9485 79.8909 22.1456C79.8909 20.3192 80.8275 19.1485 82.2558 19.1485C83.848 19.1485 84.6909 20.5065 84.6909 22.1222C84.6909 23.808 83.9182 25.1192 82.2558 25.1192Z" fill="url(#paint2_linear_284_10072)"/>
<path d="M95.7828 26.2666C94.1204 26.2666 93.254 24.8149 93.254 22.6373C93.254 20.4597 94.1204 18.9846 95.7828 18.9846C97.4453 18.9846 98.3346 20.4597 98.3346 22.6373C98.3346 24.8149 97.4453 26.2666 95.7828 26.2666ZM95.8062 28.9827C99.6693 28.9827 102.198 26.2432 102.198 22.6373C102.198 19.0314 99.6693 16.2919 95.8062 16.2919C91.9662 16.2919 89.3906 19.0314 89.3906 22.6373C89.3906 26.2432 91.9662 28.9827 95.8062 28.9827Z" fill="url(#paint3_linear_284_10072)"/>
<path d="M103.314 28.608H107.131V16.6197H103.314V28.608ZM103.314 14.9572H107.131V11.8665H103.314V14.9572Z" fill="url(#paint4_linear_284_10072)"/>
<path d="M108.785 32.5651H112.602V27.367H112.649C113.398 28.3739 114.498 28.9826 116.044 28.9826C119.181 28.9826 121.265 26.5007 121.265 22.6139C121.265 19.008 119.322 16.2685 116.137 16.2685C114.498 16.2685 113.328 16.9943 112.508 18.0714H112.438V16.6197H108.785V32.5651ZM115.06 26.0324C113.421 26.0324 112.485 24.6978 112.485 22.7543C112.485 20.8109 113.328 19.3358 114.99 19.3358C116.629 19.3358 117.402 20.6939 117.402 22.7543C117.402 24.7914 116.512 26.0324 115.06 26.0324Z" fill="url(#paint5_linear_284_10072)"/>
<path d="M127.479 28.9826C130.616 28.9826 132.934 27.6246 132.934 25.0022C132.934 21.9348 130.452 21.3963 128.345 21.0451C126.823 20.7641 125.465 20.647 125.465 19.8041C125.465 19.0548 126.191 18.7036 127.127 18.7036C128.181 18.7036 128.907 19.0314 129.047 20.1085H132.56C132.372 17.7436 130.546 16.2685 127.151 16.2685C124.318 16.2685 121.976 17.5797 121.976 20.1085C121.976 22.9183 124.201 23.4802 126.285 23.8314C127.877 24.1124 129.328 24.2295 129.328 25.3065C129.328 26.0792 128.603 26.5007 127.455 26.5007C126.191 26.5007 125.395 25.9153 125.254 24.7212H121.648C121.766 27.367 123.966 28.9826 127.479 28.9826Z" fill="url(#paint6_linear_284_10072)"/>
<path d="M138.119 28.9592C139.781 28.9592 140.835 28.3036 141.701 27.1329H141.772V28.608H145.424V16.6197H141.608V23.3163C141.608 24.7446 140.812 25.728 139.5 25.728C138.283 25.728 137.697 25.0021 137.697 23.6909V16.6197H133.904V24.487C133.904 27.1563 135.356 28.9592 138.119 28.9592Z" fill="url(#paint7_linear_284_10072)"/>
<path d="M147.086 28.608H150.903V21.888C150.903 20.4597 151.605 19.4529 152.799 19.4529C153.946 19.4529 154.485 20.2022 154.485 21.49V28.608H158.302V21.888C158.302 20.4597 158.981 19.4529 160.198 19.4529C161.345 19.4529 161.884 20.2022 161.884 21.49V28.608H165.701V20.8109C165.701 18.1183 164.343 16.2685 161.626 16.2685C160.081 16.2685 158.793 16.9241 157.857 18.3758H157.81C157.201 17.088 156.007 16.2685 154.438 16.2685C152.705 16.2685 151.558 17.088 150.809 18.329H150.739V16.6197H147.086V28.608Z" fill="url(#paint8_linear_284_10072)"/>
<path fill-rule="evenodd" clip-rule="evenodd" d="M20.1918 39.3397C30.9682 39.3397 39.704 30.6038 39.704 19.8275C39.704 9.05127 30.9682 0.315369 20.1918 0.315369C9.41558 0.315369 0.679688 9.05127 0.679688 19.8275C0.679688 30.6038 9.41558 39.3397 20.1918 39.3397ZM23.2036 15.391C24.8668 13.7277 24.8668 11.031 23.2036 9.36772C21.5402 7.70442 18.8436 7.70442 17.1802 9.36772C15.517 11.031 15.517 13.7277 17.1802 15.391L20.1918 18.4026L23.2036 15.391ZM24.6284 22.8392C26.2917 24.5025 28.9884 24.5025 30.6517 22.8392C32.315 21.1759 32.315 18.4792 30.6517 16.8159C28.9884 15.1527 26.2917 15.1527 24.6284 16.8159L21.6168 19.8276L24.6284 22.8392ZM23.2036 30.2874C24.8668 28.6241 24.8668 25.9274 23.2036 24.2641L20.1918 21.2525L17.1802 24.2641C15.517 25.9274 15.517 28.6241 17.1802 30.2874C18.8436 31.9507 21.5402 31.9507 23.2036 30.2874ZM9.73201 22.8392C8.06875 21.1759 8.06875 18.4792 9.73201 16.8159C11.3954 15.1527 14.092 15.1527 15.7554 16.8159L18.767 19.8276L15.7554 22.8392C14.092 24.5025 11.3954 24.5025 9.73201 22.8392Z" fill="url(#paint9_linear_284_10072)"/>
</g>
<defs>
<linearGradient id="paint0_linear_284_10072" x1="56.8368" y1="11.9896" x2="60.8321" y2="27.72" gradientUnits="userSpaceOnUse">
<stop stop-color="white"/>
<stop offset="1" stop-color="#CDCDCD"/>
</linearGradient>
<linearGradient id="paint1_linear_284_10072" x1="69.6255" y1="16.3852" x2="71.7842" y2="28.7003" gradientUnits="userSpaceOnUse">
<stop stop-color="white"/>
<stop offset="1" stop-color="#CDCDCD"/>
</linearGradient>
<linearGradient id="paint2_linear_284_10072" x1="82.635" y1="16.3897" x2="86.3888" y2="31.9729" gradientUnits="userSpaceOnUse">
<stop stop-color="white"/>
<stop offset="1" stop-color="#CDCDCD"/>
</linearGradient>
<linearGradient id="paint3_linear_284_10072" x1="96.2327" y1="16.3852" x2="98.3914" y2="28.7003" gradientUnits="userSpaceOnUse">
<stop stop-color="white"/>
<stop offset="1" stop-color="#CDCDCD"/>
</linearGradient>
<linearGradient id="paint4_linear_284_10072" x1="105.353" y1="11.9896" x2="113.464" y2="22.4413" gradientUnits="userSpaceOnUse">
<stop stop-color="white"/>
<stop offset="1" stop-color="#CDCDCD"/>
</linearGradient>
<linearGradient id="paint5_linear_284_10072" x1="115.452" y1="16.3883" x2="119.027" y2="31.8627" gradientUnits="userSpaceOnUse">
<stop stop-color="white"/>
<stop offset="1" stop-color="#CDCDCD"/>
</linearGradient>
<linearGradient id="paint6_linear_284_10072" x1="127.678" y1="16.362" x2="130.115" y2="28.5931" gradientUnits="userSpaceOnUse">
<stop stop-color="white"/>
<stop offset="1" stop-color="#CDCDCD"/>
</linearGradient>
<linearGradient id="paint7_linear_284_10072" x1="140.059" y1="16.7104" x2="142.316" y2="28.6248" gradientUnits="userSpaceOnUse">
<stop stop-color="white"/>
<stop offset="1" stop-color="#CDCDCD"/>
</linearGradient>
<linearGradient id="paint8_linear_284_10072" x1="157.03" y1="16.3592" x2="158.458" y2="28.534" gradientUnits="userSpaceOnUse">
<stop stop-color="white"/>
<stop offset="1" stop-color="#CDCDCD"/>
</linearGradient>
<linearGradient id="paint9_linear_284_10072" x1="21.5277" y1="0.602312" x2="28.2231" y2="38.4507" gradientUnits="userSpaceOnUse">
<stop stop-color="white"/>
<stop offset="1" stop-color="#CDCDCD"/>
</linearGradient>
<clipPath id="clip0_284_10072">
<rect width="165.854" height="40" fill="white" transform="translate(0.580078)"/>
</clipPath>
</defs>
</svg>
