<svg width="182" height="40" viewBox="0 0 182 40" fill="none" xmlns="http://www.w3.org/2000/svg">
<path d="M53.5035 26.6958C53.5035 27.5689 53.3242 28.2399 52.9657 28.7086C52.6165 29.1774 52.0329 29.4118 51.2149 29.4118C50.4428 29.4118 49.8959 29.1774 49.5742 28.7086C49.2617 28.2399 49.1055 27.5689 49.1055 26.6958V12.1232C49.1055 11.25 49.2617 10.579 49.5742 10.1103C49.8959 9.64154 50.4428 9.40717 51.2149 9.40717C52.0329 9.40717 52.6165 9.64154 52.9657 10.1103C53.3242 10.579 53.5035 11.25 53.5035 12.1232V26.6958Z" fill="url(#paint0_linear_284_10083)"/>
<path d="M54.8379 22.4633C54.8379 21.4889 54.9941 20.5699 55.3067 19.7059C55.6284 18.8327 56.1062 18.0699 56.7405 17.4173C57.3839 16.7647 58.1835 16.2454 59.1394 15.8594C60.1045 15.4733 61.2349 15.2803 62.5309 15.2803C63.7718 15.2803 64.8701 15.4595 65.826 15.818C66.7819 16.1765 67.5861 16.6774 68.2386 17.3208C68.8912 17.9549 69.3875 18.7132 69.7277 19.5955C70.0677 20.4687 70.2378 21.4246 70.2378 22.4633C70.2378 23.4283 70.0768 24.3428 69.7552 25.2068C69.4335 26.0615 68.9509 26.8153 68.3075 27.4679C67.6642 28.1112 66.86 28.6259 65.8949 29.012C64.9298 29.3888 63.8085 29.5772 62.5309 29.5772C61.2718 29.5772 60.1597 29.398 59.1945 29.0395C58.2386 28.6719 57.4345 28.1709 56.7819 27.5367C56.1385 26.8934 55.6513 26.1397 55.3205 25.2757C54.9987 24.4026 54.8379 23.465 54.8379 22.4633ZM59.4289 22.4633C59.4289 23.0699 59.484 23.6489 59.5944 24.2003C59.7046 24.7426 59.8793 25.2206 60.1182 25.6342C60.3664 26.0477 60.6881 26.3787 61.0833 26.6268C61.4786 26.8657 61.9611 26.9853 62.5309 26.9853C63.0548 26.9853 63.5098 26.875 63.8958 26.6543C64.2911 26.4339 64.6127 26.1259 64.8609 25.7307C65.1182 25.3355 65.3113 24.8621 65.4399 24.3107C65.5686 23.75 65.6329 23.1342 65.6329 22.4633C65.6329 21.8566 65.5732 21.2821 65.4538 20.7399C65.3434 20.1885 65.1642 19.7059 64.916 19.2922C64.6679 18.8695 64.3462 18.5386 63.9509 18.2996C63.5649 18.0515 63.0915 17.9274 62.5309 17.9274C61.9702 17.9274 61.4924 18.0468 61.0971 18.2859C60.7019 18.5248 60.3802 18.851 60.132 19.2647C59.8839 19.6783 59.7046 20.1608 59.5944 20.7123C59.484 21.2637 59.4289 21.8474 59.4289 22.4633Z" fill="url(#paint1_linear_284_10083)"/>
<path d="M81.5553 26.7509C81.3071 27.2104 81.0038 27.601 80.6453 27.9228C80.2962 28.2444 79.9055 28.511 79.4736 28.7225C79.0507 28.9246 78.5958 29.0762 78.1086 29.1774C77.6306 29.2693 77.139 29.3153 76.6335 29.3153C75.7878 29.3153 75.0158 29.1636 74.3172 28.8602C73.6187 28.5569 73.0167 28.1203 72.5112 27.5506C72.0149 26.9715 71.6289 26.2637 71.3531 25.4274C71.0773 24.5909 70.9395 23.635 70.9395 22.5597C70.9395 21.5487 71.0682 20.602 71.3256 19.7196C71.5829 18.8373 71.9551 18.0699 72.4423 17.4173C72.9386 16.7647 73.5452 16.25 74.2622 15.8732C74.979 15.4963 75.7971 15.3079 76.7162 15.3079C77.7639 15.3079 78.6923 15.5101 79.5011 15.9144C80.3191 16.3189 81.0223 16.9807 81.6105 17.8997V17.5414C81.6105 16.8796 81.7897 16.3833 82.1482 16.0523C82.5158 15.7123 83.0213 15.5422 83.6647 15.5422C84.0507 15.5422 84.377 15.6066 84.6436 15.7353C84.91 15.8548 85.1215 16.0386 85.2777 16.2868C85.434 16.5257 85.5443 16.8245 85.6086 17.1829C85.6822 17.5321 85.7189 17.932 85.7189 18.3823V27.6195C85.7189 28.7408 85.5765 29.7426 85.2916 30.6249C85.0158 31.5073 84.5838 32.2519 83.9956 32.8584C83.4073 33.465 82.6537 33.9246 81.7345 34.2372C80.8155 34.5588 79.7217 34.7196 78.4533 34.7196C77.5618 34.7196 76.7713 34.6783 76.0819 34.5955C75.4018 34.5221 74.8136 34.4072 74.3172 34.2509C73.821 34.0762 73.4442 33.8833 73.1867 33.6719C72.9386 33.4604 72.8145 33.1847 72.8145 32.8447C72.8145 32.6516 72.842 32.4679 72.8972 32.2932C72.9524 32.1186 73.0351 31.9623 73.1453 31.8244C73.2649 31.6957 73.4165 31.5901 73.6004 31.5073C73.7933 31.4339 74.0277 31.397 74.3035 31.397C74.5976 31.397 74.8917 31.4154 75.1858 31.4522C75.4891 31.4889 75.8017 31.5257 76.1233 31.5624C76.4542 31.6084 76.7989 31.6497 77.1573 31.6866C77.525 31.7233 77.9202 31.7417 78.343 31.7417C78.8485 31.7417 79.2989 31.6912 79.6942 31.5901C80.0893 31.4889 80.4247 31.3097 80.7005 31.0523C80.9763 30.795 81.1877 30.4503 81.3347 30.0183C81.4818 29.5955 81.5553 29.0533 81.5553 28.3915V26.7509ZM81.5553 22.4633C81.5553 21.7922 81.5048 21.181 81.4037 20.6296C81.3118 20.0781 81.1509 19.6094 80.9211 19.2233C80.6913 18.8281 80.3835 18.5248 79.9975 18.3134C79.6113 18.0928 79.1289 17.9826 78.5498 17.9826C77.9799 17.9826 77.5066 18.0974 77.1298 18.3272C76.7622 18.5569 76.468 18.8741 76.2475 19.2784C76.0269 19.6829 75.8706 20.1562 75.7786 20.6986C75.6959 21.2408 75.6546 21.8199 75.6546 22.4356C75.6546 23.8419 75.9028 24.8989 76.3991 25.6066C76.8953 26.3143 77.6169 26.6682 78.5636 26.6682C79.0048 26.659 79.4046 26.5762 79.763 26.42C80.1306 26.2546 80.4478 26.0019 80.7143 25.6617C80.9809 25.3216 81.1877 24.8896 81.3347 24.3657C81.4818 23.8419 81.5553 23.2077 81.5553 22.4633Z" fill="url(#paint2_linear_284_10083)"/>
<path d="M86.9844 22.4633C86.9844 21.4889 87.1406 20.5699 87.4531 19.7059C87.7748 18.8327 88.2527 18.0699 88.887 17.4173C89.5304 16.7647 90.3299 16.2454 91.2858 15.8594C92.251 15.4733 93.3814 15.2803 94.6774 15.2803C95.9181 15.2803 97.0165 15.4595 97.9724 15.818C98.9283 16.1765 99.7325 16.6774 100.385 17.3208C101.038 17.9549 101.534 18.7132 101.874 19.5955C102.214 20.4687 102.384 21.4246 102.384 22.4633C102.384 23.4283 102.223 24.3428 101.902 25.2068C101.58 26.0615 101.097 26.8153 100.454 27.4679C99.8106 28.1112 99.0064 28.6259 98.0413 29.012C97.0763 29.3888 95.955 29.5772 94.6774 29.5772C93.4181 29.5772 92.306 29.398 91.341 29.0395C90.3851 28.6719 89.5808 28.1709 88.9283 27.5367C88.285 26.8934 87.7978 26.1397 87.4668 25.2757C87.1452 24.4026 86.9844 23.465 86.9844 22.4633ZM91.5753 22.4633C91.5753 23.0699 91.6305 23.6489 91.7408 24.2003C91.8511 24.7426 92.0257 25.2206 92.2647 25.6342C92.5128 26.0477 92.8345 26.3787 93.2298 26.6268C93.625 26.8657 94.1075 26.9853 94.6774 26.9853C95.2013 26.9853 95.6563 26.875 96.0423 26.6543C96.4374 26.4339 96.7592 26.1259 97.0073 25.7307C97.2647 25.3355 97.4577 24.8621 97.5864 24.3107C97.7151 23.75 97.7794 23.1342 97.7794 22.4633C97.7794 21.8566 97.7197 21.2821 97.6001 20.7399C97.4899 20.1885 97.3106 19.7059 97.0625 19.2922C96.8144 18.8695 96.4926 18.5386 96.0974 18.2996C95.7114 18.0515 95.238 17.9274 94.6774 17.9274C94.1167 17.9274 93.6387 18.0468 93.2435 18.2859C92.8484 18.5248 92.5266 18.851 92.2785 19.2647C92.0304 19.6783 91.8511 20.1608 91.7408 20.7123C91.6305 21.2637 91.5753 21.8474 91.5753 22.4633Z" fill="url(#paint3_linear_284_10083)"/>
<path d="M108.298 10.6342C108.298 10.9375 108.229 11.2086 108.091 11.4476C107.953 11.6774 107.774 11.8703 107.553 12.0267C107.333 12.1829 107.075 12.3023 106.781 12.385C106.496 12.4586 106.202 12.4954 105.899 12.4954C105.577 12.4954 105.269 12.454 104.975 12.3713C104.69 12.2886 104.438 12.1692 104.217 12.0128C103.996 11.8474 103.822 11.6498 103.693 11.42C103.564 11.1902 103.5 10.9283 103.5 10.6342C103.5 10.3676 103.56 10.1241 103.679 9.90347C103.808 9.6737 103.978 9.47608 104.189 9.31064C104.401 9.1452 104.654 9.01652 104.948 8.92461C105.242 8.8327 105.563 8.78674 105.913 8.78674C106.216 8.78674 106.51 8.82811 106.795 8.91083C107.089 8.99354 107.346 9.11303 107.567 9.26928C107.788 9.42553 107.962 9.61854 108.091 9.84832C108.229 10.0781 108.298 10.34 108.298 10.6342ZM108.091 26.6957C108.091 27.5689 107.912 28.2399 107.553 28.7086C107.204 29.1774 106.62 29.4117 105.802 29.4117C105.03 29.4117 104.483 29.1774 104.162 28.7086C103.849 28.2399 103.693 27.5689 103.693 26.6957V18.2582C103.693 17.385 103.849 16.7141 104.162 16.2454C104.483 15.7767 105.03 15.5422 105.802 15.5422C106.62 15.5422 107.204 15.7767 107.553 16.2454C107.912 16.7141 108.091 17.385 108.091 18.2582V26.6957Z" fill="url(#paint4_linear_284_10083)"/>
<path d="M114.429 22.4356C114.429 23.0515 114.475 23.6259 114.567 24.159C114.668 24.6921 114.834 25.1608 115.063 25.5653C115.303 25.9604 115.615 26.2729 116.001 26.5027C116.396 26.7326 116.883 26.8474 117.462 26.8474C117.995 26.8474 118.441 26.7372 118.8 26.5166C119.167 26.2868 119.461 25.9742 119.682 25.579C119.902 25.1746 120.059 24.7013 120.151 24.159C120.252 23.6167 120.302 23.0285 120.302 22.3943C120.302 21.8888 120.266 21.3741 120.192 20.8502C120.119 20.317 119.981 19.8346 119.779 19.4026C119.577 18.9706 119.297 18.6167 118.938 18.3409C118.579 18.0653 118.111 17.9274 117.531 17.9274C116.952 17.9274 116.461 18.0193 116.056 18.2032C115.661 18.3869 115.339 18.6673 115.091 19.0441C114.852 19.4209 114.682 19.8943 114.581 20.4641C114.48 21.0248 114.429 21.682 114.429 22.4356ZM114.416 18.2582C114.645 17.7712 114.939 17.3437 115.298 16.9761C115.656 16.6084 116.052 16.3006 116.484 16.0523C116.916 15.8042 117.366 15.6203 117.835 15.5009C118.313 15.3722 118.786 15.3079 119.254 15.3079C120.1 15.3079 120.864 15.4963 121.544 15.8732C122.224 16.25 122.802 16.7647 123.28 17.4173C123.767 18.0607 124.14 18.8235 124.398 19.7059C124.654 20.579 124.784 21.5166 124.784 22.5183C124.784 23.5569 124.645 24.5082 124.369 25.3722C124.104 26.2362 123.721 26.9807 123.225 27.6056C122.738 28.2215 122.149 28.704 121.46 29.0533C120.78 29.4026 120.022 29.5772 119.186 29.5772C118.157 29.5772 117.237 29.3382 116.428 28.8602C115.62 28.3823 114.949 27.7114 114.416 26.8474V31.8107C114.416 32.6837 114.236 33.3548 113.878 33.8235C113.529 34.2922 112.945 34.5267 112.127 34.5267C111.355 34.5267 110.808 34.2922 110.486 33.8235C110.174 33.3548 110.018 32.6837 110.018 31.8107V18.2582C110.018 17.385 110.174 16.7141 110.486 16.2454C110.808 15.7767 111.355 15.5422 112.127 15.5422C112.945 15.5422 113.529 15.7767 113.878 16.2454C114.236 16.7141 114.416 17.385 114.416 18.2582Z" fill="url(#paint5_linear_284_10083)"/>
<path d="M129.634 19.2372C129.634 19.5955 129.791 19.8759 130.103 20.0781C130.416 20.2712 130.847 20.432 131.399 20.5607C131.923 20.6801 132.46 20.795 133.012 20.9053C133.564 21.0156 134.101 21.1443 134.625 21.2914C135.148 21.4292 135.64 21.5947 136.1 21.7876C136.559 21.9807 136.964 22.2242 137.313 22.5183C137.663 22.8033 137.938 23.1526 138.14 23.5661C138.343 23.9706 138.444 24.4577 138.444 25.0275C138.444 25.7445 138.297 26.3833 138.003 26.9439C137.708 27.4954 137.291 27.9641 136.748 28.3502C136.216 28.7362 135.577 29.0349 134.832 29.2463C134.087 29.4577 133.265 29.568 132.364 29.5772C131.51 29.5772 130.686 29.5221 129.896 29.4117C129.106 29.3107 128.403 29.1497 127.786 28.9292C127.18 28.7086 126.693 28.4375 126.325 28.1157C125.958 27.7849 125.774 27.3989 125.774 26.9577C125.774 26.5716 125.898 26.2729 126.146 26.0615C126.394 25.8502 126.711 25.7445 127.098 25.7445C127.245 25.7445 127.419 25.772 127.621 25.8272C127.824 25.8823 128.044 25.9513 128.283 26.034C128.521 26.1167 128.774 26.2086 129.041 26.3097C129.317 26.4016 129.601 26.4843 129.896 26.5579C130.264 26.659 130.64 26.7417 131.026 26.8061C131.421 26.8612 131.826 26.8888 132.24 26.8888C132.497 26.8888 132.75 26.8657 132.998 26.8199C133.246 26.7647 133.467 26.6866 133.66 26.5855C133.863 26.4752 134.027 26.3373 134.157 26.1719C134.285 26.0065 134.363 25.8042 134.391 25.5653C134.418 25.5101 134.441 25.4549 134.459 25.3997C134.478 25.3447 134.487 25.2803 134.487 25.2068C134.487 24.9494 134.367 24.7196 134.128 24.5174C133.899 24.3153 133.572 24.1543 133.15 24.0349C132.441 23.8695 131.766 23.7179 131.123 23.58C130.48 23.4421 129.883 23.295 129.331 23.1388C128.788 22.9826 128.292 22.8033 127.841 22.601C127.4 22.3989 127.024 22.1507 126.711 21.8566C126.408 21.5625 126.168 21.2086 125.994 20.795C125.828 20.3814 125.746 19.8805 125.746 19.2922C125.746 18.6581 125.888 18.0928 126.173 17.5965C126.467 17.0909 126.886 16.6682 127.428 16.3281C127.971 15.988 128.627 15.7307 129.4 15.5561C130.172 15.3722 131.045 15.2803 132.019 15.2803C133.765 15.2803 135.093 15.4917 136.004 15.9145C136.923 16.3281 137.383 16.8703 137.383 17.5414C137.383 17.9182 137.258 18.2077 137.01 18.4099C136.761 18.6029 136.463 18.6994 136.114 18.6994C135.93 18.6994 135.737 18.6673 135.534 18.6029C135.341 18.5294 135.107 18.4513 134.832 18.3686C134.556 18.2767 134.225 18.1986 133.839 18.1342C133.463 18.0607 132.993 18.0239 132.433 18.0239C132.01 18.0239 131.624 18.0422 131.274 18.079C130.934 18.1157 130.64 18.1801 130.392 18.272C130.153 18.364 129.965 18.488 129.827 18.6443C129.698 18.8006 129.634 18.9981 129.634 19.2372Z" fill="url(#paint6_linear_284_10083)"/>
<path d="M144.04 24.2968C144.04 24.7288 144.096 25.1056 144.206 25.4274C144.325 25.7491 144.486 26.0202 144.688 26.2408C144.891 26.4522 145.125 26.6131 145.391 26.7233C145.667 26.8245 145.961 26.8751 146.273 26.8751C146.641 26.8751 146.996 26.8199 147.336 26.7095C147.676 26.5993 147.974 26.4292 148.232 26.1994C148.498 25.9696 148.71 25.6801 148.866 25.3308C149.021 24.9816 149.1 24.5726 149.1 24.1039V18.2582C149.1 17.3851 149.257 16.7141 149.568 16.2454C149.891 15.7767 150.438 15.5422 151.21 15.5422C152.027 15.5422 152.611 15.7767 152.96 16.2454C153.319 16.7141 153.498 17.3851 153.498 18.2582V26.6958C153.498 27.5689 153.319 28.2399 152.96 28.7086C152.611 29.1774 152.027 29.4118 151.21 29.4118C150.438 29.4118 149.891 29.1774 149.568 28.7086C149.257 28.2399 149.1 27.5689 149.1 26.6958C148.907 27.1186 148.654 27.5046 148.341 27.8539C148.038 28.2032 147.68 28.5065 147.266 28.7638C146.861 29.012 146.412 29.2049 145.916 29.3428C145.428 29.4807 144.899 29.5496 144.33 29.5496C143.714 29.5496 143.121 29.4439 142.551 29.2326C141.991 29.012 141.494 28.6902 141.063 28.2674C140.631 27.8355 140.286 27.3024 140.028 26.6682C139.771 26.034 139.643 25.2941 139.643 24.4485V18.2582C139.643 17.3851 139.799 16.7141 140.111 16.2454C140.433 15.7767 140.979 15.5422 141.752 15.5422C142.57 15.5422 143.153 15.7767 143.503 16.2454C143.861 16.7141 144.04 17.3851 144.04 18.2582V24.2968Z" fill="url(#paint7_linear_284_10083)"/>
<path d="M155.494 18.2582C155.494 17.385 155.651 16.7141 155.964 16.2454C156.285 15.7767 156.832 15.5422 157.604 15.5422C158.422 15.5422 159.006 15.7767 159.355 16.2454C159.713 16.7141 159.893 17.385 159.893 18.2582C160.076 17.817 160.325 17.4173 160.638 17.0588C160.959 16.6912 161.322 16.3787 161.726 16.1213C162.14 15.864 162.586 15.6663 163.064 15.5284C163.541 15.3814 164.038 15.3079 164.553 15.3079C165.031 15.3079 165.499 15.3722 165.959 15.5009C166.427 15.6203 166.86 15.818 167.255 16.0937C167.659 16.3602 168.013 16.7003 168.316 17.114C168.62 17.5275 168.854 18.0239 169.02 18.6029C169.305 17.9872 169.64 17.4679 170.026 17.045C170.412 16.6222 170.831 16.2821 171.28 16.0248C171.731 15.7674 172.2 15.5836 172.687 15.4733C173.184 15.363 173.679 15.3079 174.175 15.3079C174.764 15.3079 175.325 15.4136 175.858 15.6249C176.4 15.8363 176.873 16.1581 177.278 16.5901C177.692 17.0128 178.018 17.5506 178.257 18.2032C178.505 18.8465 178.628 19.6002 178.628 20.4641V26.6957C178.628 27.5689 178.449 28.2399 178.091 28.7086C177.742 29.1774 177.158 29.4117 176.34 29.4117C175.568 29.4117 175.021 29.1774 174.7 28.7086C174.387 28.2399 174.231 27.5689 174.231 26.6957V20.6572C174.231 20.2435 174.175 19.8759 174.066 19.5542C173.955 19.2233 173.799 18.9476 173.597 18.727C173.404 18.4973 173.174 18.3272 172.907 18.2169C172.641 18.0974 172.355 18.0376 172.053 18.0376C171.675 18.0376 171.318 18.0974 170.978 18.2169C170.638 18.3363 170.339 18.5202 170.081 18.7683C169.833 19.0166 169.631 19.3336 169.474 19.7196C169.327 20.1056 169.254 20.5699 169.254 21.1121V26.6957C169.254 27.5689 169.074 28.2399 168.716 28.7086C168.367 29.1774 167.784 29.4117 166.965 29.4117C166.193 29.4117 165.646 29.1774 165.325 28.7086C165.012 28.2399 164.855 27.5689 164.855 26.6957V20.919C164.855 19.9725 164.658 19.2555 164.264 18.7683C163.877 18.2813 163.348 18.0376 162.678 18.0376C162.282 18.0376 161.914 18.102 161.574 18.2307C161.234 18.3594 160.94 18.5477 160.692 18.796C160.444 19.0441 160.246 19.352 160.099 19.7196C159.961 20.0873 159.893 20.5101 159.893 20.988V26.6957C159.893 27.5689 159.713 28.2399 159.355 28.7086C159.006 29.1774 158.422 29.4117 157.604 29.4117C156.832 29.4117 156.285 29.1774 155.964 28.7086C155.651 28.2399 155.494 27.5689 155.494 26.6957V18.2582Z" fill="url(#paint8_linear_284_10083)"/>
<path d="M20.4338 27.0588C16.5354 27.0588 13.375 23.8985 13.375 20C13.375 16.1015 16.5354 12.9412 20.4338 12.9412C24.3323 12.9412 27.4926 16.1015 27.4926 20C27.4926 23.8985 24.3323 27.0588 20.4338 27.0588Z" fill="url(#paint9_linear_284_10083)"/>
<path d="M6.75881 22.4113C4.71322 22.772 3.31108 24.748 4.09632 26.671C5.1926 29.3557 6.94158 31.7477 9.209 33.6169C12.4512 36.2895 16.5407 37.7176 20.7418 37.6443C24.943 37.571 28.9802 36.001 32.1272 33.2168C34.328 31.2697 35.9924 28.8181 36.9944 26.0968C37.7121 24.1475 36.2417 22.2216 34.1848 21.9326C32.128 21.6435 30.2811 23.1407 29.2651 24.9525C28.7144 25.9345 27.9995 26.8254 27.143 27.5832C25.3374 29.1807 23.021 30.0814 20.6107 30.1235C18.2002 30.1655 15.8538 29.3462 13.9936 27.8127C13.1111 27.0853 12.3656 26.2199 11.7809 25.2576C10.7023 23.4825 8.8044 22.0506 6.75881 22.4113Z" fill="url(#paint10_linear_284_10083)"/>
<path d="M37.9448 22.2053C38.0349 21.4828 38.0812 20.7468 38.0812 20C38.0812 10.2538 30.1804 2.35297 20.4342 2.35297C10.688 2.35297 2.78711 10.2538 2.78711 20C2.78711 20.9585 2.86352 21.8991 3.01059 22.8161C3.82116 21.7065 5.08624 20.9144 6.45271 20.6734C7.93117 20.4127 9.27485 20.7713 10.411 21.4416C10.3438 20.9707 10.3091 20.4894 10.3091 20C10.3091 14.4081 14.8423 9.87497 20.4342 9.87497C26.026 9.87497 30.5592 14.4081 30.5592 20C30.5592 20.3687 30.5395 20.7329 30.5011 21.0913C31.6132 20.3816 32.9438 19.976 34.4308 20.1851C35.8044 20.3781 37.0959 21.1252 37.9448 22.2053Z" fill="url(#paint11_linear_284_10083)"/>
<defs>
<linearGradient id="paint0_linear_284_10083" x1="51.455" y1="9.55426" x2="61.2277" y2="21.6996" gradientUnits="userSpaceOnUse">
<stop stop-color="white"/>
<stop offset="1" stop-color="#CDCDCD"/>
</linearGradient>
<linearGradient id="paint1_linear_284_10083" x1="63.065" y1="15.3855" x2="65.3518" y2="29.3098" gradientUnits="userSpaceOnUse">
<stop stop-color="white"/>
<stop offset="1" stop-color="#CDCDCD"/>
</linearGradient>
<linearGradient id="paint2_linear_284_10083" x1="78.8351" y1="15.4506" x2="83.1153" y2="33.8721" gradientUnits="userSpaceOnUse">
<stop stop-color="white"/>
<stop offset="1" stop-color="#CDCDCD"/>
</linearGradient>
<linearGradient id="paint3_linear_284_10083" x1="95.2114" y1="15.3855" x2="97.4982" y2="29.3098" gradientUnits="userSpaceOnUse">
<stop stop-color="white"/>
<stop offset="1" stop-color="#CDCDCD"/>
</linearGradient>
<linearGradient id="paint4_linear_284_10083" x1="106.063" y1="8.9384" x2="116.003" y2="22.0089" gradientUnits="userSpaceOnUse">
<stop stop-color="white"/>
<stop offset="1" stop-color="#CDCDCD"/>
</linearGradient>
<linearGradient id="paint5_linear_284_10083" x1="117.906" y1="15.4492" x2="122.109" y2="33.7044" gradientUnits="userSpaceOnUse">
<stop stop-color="white"/>
<stop offset="1" stop-color="#CDCDCD"/>
</linearGradient>
<linearGradient id="paint6_linear_284_10083" x1="132.53" y1="15.3855" x2="135.269" y2="29.1397" gradientUnits="userSpaceOnUse">
<stop stop-color="white"/>
<stop offset="1" stop-color="#CDCDCD"/>
</linearGradient>
<linearGradient id="paint7_linear_284_10083" x1="147.044" y1="15.6452" x2="149.473" y2="29.2214" gradientUnits="userSpaceOnUse">
<stop stop-color="white"/>
<stop offset="1" stop-color="#CDCDCD"/>
</linearGradient>
<linearGradient id="paint8_linear_284_10083" x1="167.853" y1="15.4116" x2="169.357" y2="29.3563" gradientUnits="userSpaceOnUse">
<stop stop-color="white"/>
<stop offset="1" stop-color="#CDCDCD"/>
</linearGradient>
<linearGradient id="paint9_linear_284_10083" x1="20.9171" y1="13.045" x2="23.3392" y2="26.7372" gradientUnits="userSpaceOnUse">
<stop stop-color="white"/>
<stop offset="1" stop-color="#CDCDCD"/>
</linearGradient>
<linearGradient id="paint10_linear_284_10083" x1="21.6669" y1="22.0125" x2="22.9757" y2="37.6567" gradientUnits="userSpaceOnUse">
<stop stop-color="white"/>
<stop offset="1" stop-color="#CDCDCD"/>
</linearGradient>
<linearGradient id="paint11_linear_284_10083" x1="21.6423" y1="2.50343" x2="23.7197" y2="22.758" gradientUnits="userSpaceOnUse">
<stop stop-color="white"/>
<stop offset="1" stop-color="#CDCDCD"/>
</linearGradient>
</defs>
</svg>
