<svg width="167" height="40" viewBox="0 0 167 40" fill="none" xmlns="http://www.w3.org/2000/svg">
<g clip-path="url(#clip0_284_10096)">
<path d="M51.2051 27.4517H62.8656V23.9395H55.3495V10.7103H51.2051V27.4517Z" fill="url(#paint0_linear_284_10096)"/>
<path d="M69.7731 25.1103C68.1106 25.1103 67.2443 23.6585 67.2443 21.481C67.2443 19.3034 68.1106 17.8283 69.7731 17.8283C71.4355 17.8283 72.3252 19.3034 72.3252 21.481C72.3252 23.6585 71.4355 25.1103 69.7731 25.1103ZM69.7965 27.8264C73.6599 27.8264 76.1887 25.0868 76.1887 21.481C76.1887 17.8751 73.6599 15.1356 69.7965 15.1356C65.9565 15.1356 63.3809 17.8751 63.3809 21.481C63.3809 25.0868 65.9565 27.8264 69.7965 27.8264Z" fill="url(#paint1_linear_284_10096)"/>
<path d="M82.8768 31.5961C84.6564 31.5961 86.2251 31.198 87.2788 30.2614C88.2388 29.3951 88.871 28.0839 88.871 26.281V15.4634H85.2183V16.7512H85.1715C84.469 15.7444 83.392 15.1122 81.7998 15.1122C78.8261 15.1122 76.7656 17.5941 76.7656 21.1063C76.7656 24.7824 79.271 26.7961 81.9637 26.7961C83.4154 26.7961 84.3286 26.2107 85.031 25.4146H85.1247V26.6088C85.1247 28.0605 84.4456 28.9034 82.83 28.9034C81.5656 28.9034 80.9334 28.3649 80.7227 27.7327H77.0232C77.3978 30.238 79.5754 31.5961 82.8768 31.5961ZM82.8534 23.9629C81.4251 23.9629 80.4886 22.7922 80.4886 20.9893C80.4886 19.1629 81.4251 17.9922 82.8534 17.9922C84.4456 17.9922 85.2886 19.3502 85.2886 20.9658C85.2886 22.6517 84.5159 23.9629 82.8534 23.9629Z" fill="url(#paint2_linear_284_10096)"/>
<path d="M96.3805 25.1103C94.718 25.1103 93.8517 23.6585 93.8517 21.481C93.8517 19.3034 94.718 17.8283 96.3805 17.8283C98.0429 17.8283 98.9327 19.3034 98.9327 21.481C98.9327 23.6585 98.0429 25.1103 96.3805 25.1103ZM96.4039 27.8264C100.267 27.8264 102.796 25.0868 102.796 21.481C102.796 17.8751 100.267 15.1356 96.4039 15.1356C92.5639 15.1356 89.9883 17.8751 89.9883 21.481C89.9883 25.0868 92.5639 27.8264 96.4039 27.8264Z" fill="url(#paint3_linear_284_10096)"/>
<path d="M103.91 27.4517H107.727V15.4634H103.91V27.4517ZM103.91 13.801H107.727V10.7103H103.91V13.801Z" fill="url(#paint4_linear_284_10096)"/>
<path d="M109.385 31.4088H113.201V26.2107H113.248C113.997 27.2175 115.098 27.8263 116.643 27.8263C119.781 27.8263 121.865 25.3444 121.865 21.4575C121.865 17.8517 119.921 15.1122 116.737 15.1122C115.098 15.1122 113.927 15.838 113.108 16.9151H113.037V15.4634H109.385V31.4088ZM115.66 24.8761C114.021 24.8761 113.084 23.5415 113.084 21.598C113.084 19.6546 113.927 18.1795 115.59 18.1795C117.229 18.1795 118.001 19.5375 118.001 21.598C118.001 23.6351 117.112 24.8761 115.66 24.8761Z" fill="url(#paint5_linear_284_10096)"/>
<path d="M128.078 27.8263C131.216 27.8263 133.534 26.4683 133.534 23.8458C133.534 20.7785 131.052 20.24 128.945 19.8888C127.423 19.6078 126.065 19.4907 126.065 18.6478C126.065 17.8985 126.79 17.5473 127.727 17.5473C128.781 17.5473 129.507 17.8751 129.647 18.9522H133.159C132.972 16.5873 131.146 15.1122 127.75 15.1122C124.917 15.1122 122.576 16.4234 122.576 18.9522C122.576 21.7619 124.8 22.3239 126.884 22.6751C128.476 22.9561 129.928 23.0732 129.928 24.1502C129.928 24.9229 129.202 25.3444 128.055 25.3444C126.79 25.3444 125.994 24.759 125.854 23.5649H122.248C122.365 26.2107 124.566 27.8263 128.078 27.8263Z" fill="url(#paint6_linear_284_10096)"/>
<path d="M138.719 27.803C140.381 27.803 141.435 27.1473 142.301 25.9766H142.371V27.4517H146.024V15.4634H142.207V22.16C142.207 23.5883 141.411 24.5717 140.1 24.5717C138.882 24.5717 138.297 23.8459 138.297 22.5347V15.4634H134.504V23.3308C134.504 26 135.956 27.803 138.719 27.803Z" fill="url(#paint7_linear_284_10096)"/>
<path d="M147.682 27.4517H151.498V20.7317C151.498 19.3034 152.201 18.2966 153.395 18.2966C154.542 18.2966 155.081 19.0458 155.081 20.3336V27.4517H158.897V20.7317C158.897 19.3034 159.576 18.2966 160.794 18.2966C161.941 18.2966 162.48 19.0458 162.48 20.3336V27.4517H166.296V19.6546C166.296 16.9619 164.938 15.1122 162.222 15.1122C160.677 15.1122 159.389 15.7678 158.452 17.2195H158.406C157.797 15.9317 156.603 15.1122 155.034 15.1122C153.301 15.1122 152.154 15.9317 151.405 17.1727H151.334V15.4634H147.682V27.4517Z" fill="url(#paint8_linear_284_10096)"/>
<path fill-rule="evenodd" clip-rule="evenodd" d="M20.7896 39.159C31.5659 39.159 40.3018 30.4231 40.3018 19.6468C40.3018 8.87056 31.5659 0.134644 20.7896 0.134644C10.0132 0.134644 1.27734 8.87056 1.27734 19.6468C1.27734 30.4231 10.0132 39.159 20.7896 39.159ZM26.8767 9.22424C27.173 8.17177 26.1516 7.5494 25.2188 8.21396L12.1975 17.4903C11.1859 18.211 11.345 19.6468 12.4365 19.6468H15.8654V19.6203H22.5481L17.1029 21.5415L14.7024 30.0694C14.4061 31.1219 15.4274 31.7443 16.3603 31.0797L29.3817 21.8034C30.3933 21.0827 30.234 19.6468 29.1426 19.6468H23.9428L26.8767 9.22424Z" fill="url(#paint9_linear_284_10096)"/>
</g>
<defs>
<linearGradient id="paint0_linear_284_10096" x1="57.4345" y1="10.8334" x2="61.4297" y2="26.5637" gradientUnits="userSpaceOnUse">
<stop stop-color="white"/>
<stop offset="1" stop-color="#CDCDCD"/>
</linearGradient>
<linearGradient id="paint1_linear_284_10096" x1="70.2232" y1="15.2289" x2="72.3818" y2="27.544" gradientUnits="userSpaceOnUse">
<stop stop-color="white"/>
<stop offset="1" stop-color="#CDCDCD"/>
</linearGradient>
<linearGradient id="paint2_linear_284_10096" x1="83.2327" y1="15.2334" x2="86.9865" y2="30.8166" gradientUnits="userSpaceOnUse">
<stop stop-color="white"/>
<stop offset="1" stop-color="#CDCDCD"/>
</linearGradient>
<linearGradient id="paint3_linear_284_10096" x1="96.8306" y1="15.2289" x2="98.9892" y2="27.544" gradientUnits="userSpaceOnUse">
<stop stop-color="white"/>
<stop offset="1" stop-color="#CDCDCD"/>
</linearGradient>
<linearGradient id="paint4_linear_284_10096" x1="105.949" y1="10.8334" x2="114.059" y2="21.285" gradientUnits="userSpaceOnUse">
<stop stop-color="white"/>
<stop offset="1" stop-color="#CDCDCD"/>
</linearGradient>
<linearGradient id="paint5_linear_284_10096" x1="116.052" y1="15.232" x2="119.627" y2="30.7064" gradientUnits="userSpaceOnUse">
<stop stop-color="white"/>
<stop offset="1" stop-color="#CDCDCD"/>
</linearGradient>
<linearGradient id="paint6_linear_284_10096" x1="128.277" y1="15.2057" x2="130.715" y2="27.4368" gradientUnits="userSpaceOnUse">
<stop stop-color="white"/>
<stop offset="1" stop-color="#CDCDCD"/>
</linearGradient>
<linearGradient id="paint7_linear_284_10096" x1="140.658" y1="15.5542" x2="142.916" y2="27.4686" gradientUnits="userSpaceOnUse">
<stop stop-color="white"/>
<stop offset="1" stop-color="#CDCDCD"/>
</linearGradient>
<linearGradient id="paint8_linear_284_10096" x1="157.626" y1="15.2029" x2="159.054" y2="27.3777" gradientUnits="userSpaceOnUse">
<stop stop-color="white"/>
<stop offset="1" stop-color="#CDCDCD"/>
</linearGradient>
<linearGradient id="paint9_linear_284_10096" x1="22.1254" y1="0.421587" x2="28.8208" y2="38.27" gradientUnits="userSpaceOnUse">
<stop stop-color="white"/>
<stop offset="1" stop-color="#CDCDCD"/>
</linearGradient>
<clipPath id="clip0_284_10096">
<rect width="165.854" height="40" fill="white" transform="translate(0.609375)"/>
</clipPath>
</defs>
</svg>
