<svg width="27" height="27" viewBox="0 0 27 27" fill="none" xmlns="http://www.w3.org/2000/svg">
<path d="M12.5392 0.779539C12.8765 -0.0853237 14.1077 -0.0638342 14.4146 0.812274L17.2288 8.8455C17.3253 9.12095 17.5373 9.34049 17.8092 9.44654L25.7393 12.5393C26.6042 12.8766 26.5827 14.1078 25.7066 14.4148L17.6734 17.2289C17.3979 17.3254 17.1784 17.5374 17.0723 17.8093L13.9795 25.7395C13.6422 26.6043 12.411 26.5828 12.1041 25.7067L9.28994 17.6735C9.19345 17.3981 8.98144 17.1785 8.70953 17.0725L0.779405 13.9797C-0.0854584 13.6424 -0.0639689 12.4112 0.812139 12.1042L8.84537 9.29007C9.12081 9.19358 9.34036 8.98157 9.4464 8.70966L12.5392 0.779539Z" fill="#0F6FFF"/>
</svg>
