<svg width="29" height="31" viewBox="0 0 29 31" fill="none" xmlns="http://www.w3.org/2000/svg">
<path d="M28.5803 12.1893C28.8084 11.6636 28.8364 11.0726 28.659 10.5277C28.4816 9.98274 28.1112 9.52145 27.6174 9.23067L24.9378 7.63969C24.906 7.6226 24.8782 7.59876 24.8565 7.56983C24.8348 7.54091 24.8197 7.5076 24.8122 7.47222L24.1144 4.41588C23.9877 3.85882 23.6633 3.3666 23.2014 3.03043C22.7395 2.69427 22.1714 2.53695 21.6024 2.58765L18.4902 2.86677C18.4556 2.87496 18.4194 2.87412 18.3852 2.86435C18.351 2.85458 18.3199 2.83619 18.2948 2.81095L15.9363 0.745471C15.5056 0.374171 14.9558 0.169922 14.3872 0.169922C13.8185 0.169922 13.2688 0.374171 12.8381 0.745471L10.4795 2.81095C10.4544 2.83619 10.4233 2.85458 10.3891 2.86435C10.3549 2.87412 10.3187 2.87496 10.2841 2.86677L7.17196 2.58765C6.60165 2.53445 6.03155 2.69148 5.56891 3.0292C5.10628 3.36692 4.783 3.86206 4.65989 4.42146L3.9621 7.4778C3.95461 7.51318 3.93949 7.54649 3.9178 7.57542C3.8961 7.60434 3.86836 7.62818 3.83649 7.64527L1.15696 9.23067C0.663146 9.52145 0.292681 9.98274 0.115321 10.5277C-0.0620394 11.0726 -0.0340562 11.6636 0.194001 12.1893L1.43608 15.0642C1.46324 15.1314 1.46324 15.2064 1.43608 15.2736L0.194001 18.1485C-0.0329196 18.6722 -0.0602562 19.2609 0.117152 19.8034C0.29456 20.3459 0.664438 20.8047 1.15696 21.0932L3.85045 22.7037C3.9072 22.7437 3.947 22.8034 3.9621 22.8712L4.65989 25.9275C4.78417 26.4859 5.10795 26.9797 5.57046 27.3163C6.03297 27.6529 6.60243 27.8092 7.17196 27.7557L10.2841 27.4627C10.3197 27.4603 10.3554 27.4653 10.389 27.4773C10.4227 27.4893 10.4534 27.5081 10.4795 27.5324L12.8381 29.5979C13.2698 29.9671 13.8191 30.1699 14.3872 30.1699C14.9552 30.1699 15.5045 29.9671 15.9363 29.5979L18.2948 27.5324C18.3209 27.5081 18.3517 27.4893 18.3853 27.4773C18.4189 27.4653 18.4546 27.4603 18.4902 27.4627L21.6024 27.7557C22.1719 27.8092 22.7414 27.6529 23.2039 27.3163C23.6664 26.9797 23.9902 26.4859 24.1144 25.9275L24.8122 22.8712C24.8197 22.8358 24.8348 22.8025 24.8565 22.7736C24.8782 22.7446 24.906 22.7208 24.9378 22.7037L27.6174 21.0988C28.1099 20.8103 28.4798 20.3515 28.6572 19.809C28.8346 19.2665 28.8072 18.6778 28.5803 18.1541L27.3383 15.2792C27.3111 15.212 27.3111 15.137 27.3383 15.0698L28.5803 12.1893ZM20.6534 12.3568L13.7312 19.4464C13.5283 19.641 13.2588 19.7508 12.9776 19.7534C12.7573 19.7555 12.5422 19.687 12.3636 19.558L8.26052 16.6273C8.03474 16.4644 7.8829 16.2186 7.83841 15.9438C7.79391 15.6689 7.86041 15.3877 8.02327 15.1619C8.18613 14.9361 8.43201 14.7843 8.70682 14.7398C8.98163 14.6953 9.26286 14.7618 9.48864 14.9247L12.852 17.3391L19.1601 10.8914C19.2559 10.7926 19.3703 10.7138 19.4968 10.6595C19.6232 10.6053 19.7592 10.5767 19.8968 10.5754C20.0344 10.5741 20.1709 10.6001 20.2984 10.652C20.4259 10.7038 20.5418 10.7805 20.6394 10.8775C20.8359 11.0726 20.9476 11.3373 20.9502 11.6143C20.9528 11.8912 20.8462 12.158 20.6534 12.3568Z" fill="url(#paint0_linear_284_8737)"/>
<defs>
<linearGradient id="paint0_linear_284_8737" x1="15.3721" y1="0.39051" x2="20.7243" y2="29.4098" gradientUnits="userSpaceOnUse">
<stop stop-color="white"/>
<stop offset="1" stop-color="#CDCDCD"/>
</linearGradient>
</defs>
</svg>
